{"title":"Home.Front.2013.CAM.NEW.SOURCE.XviD-VAiN","uid":9351874,"size":1492985295,"categoryP":"video","categoryS":"movies","magnet":"?xt=urn:btih:cc79391414d5a40b3a15d929aa84d7761dc63bab&amp;dn=Home.Front.2013.CAM.NEW.SOURCE.XviD-VAiN&amp;tr=udp%3A%2F%2Ftracker.openbittorrent.com%3A80&amp;tr=udp%3A%2F%2Fopen.demonii.com%3A1337&amp;tr=udp%3A%2F%2Ftracker.coppersurfer.tk%3A6969&amp;tr=udp%3A%2F%2Fexodus.desync.com%3A6969","seeders":0,"leechers":1,"uploader":"xxxlavalxxx","files":-1,"time":1387140641,"description":" &lt;a href=&quot;http://www.imdb.com/title/tt2312718/&quot; rel=&quot;nofollow&quot; target=&quot;_NEW&quot;&gt;http://www.imdb.com/title/tt2312718/&lt;/a&gt;\n\n\nPhil Broker is a former DEA agent who has gone through a crisis after his action against a biker gang went horribly wrong and it cost the life of his boss' son. He is recently widowed and is left with a 9-years-old daughter,Maddy. He decides to quit the turbulent and demanding life of thrill for Maddy's sake and retires to a small town. His daughter fights off a boy who was bullying her at school and this sets in motion a round of events that end in his direct confrontation with the local Meth drug lord. His past history with the biker gang also enters the arena, making matters more complex. But he has a mission in his mind to protect his daughter and he is ready to pay any cost that it demands.\n\nDirector: Gary Fleder\nWriters: Sylvester Stallone (screenplay), Chuck Logan (based on the novel by)\nStars: Jason Statham, James Franco, Winona Ryder\nGenres: Action | Crime | Thriller\nCountry: USA\nLanguage: English\n\n\n      \nVAiN . P R E S E N T S . . .\n\nHome.Front.2013.CAM.NEW.SOURCE.XviD-VAiN\n\niMDB........: http://www.imdb.com/title/tt2312718/\nPLOT........: A former DEA agent moves his family to a quiet town, where he soon tangles with a local meth druglord. \n\nT E C H N i C A L . i N F O . . .      \nGeneral\nFormat                                   : AVI\nFormat/Info                              : Audio Video Interleave\nFile size                                : 1.37 GiB\nDuration                                 : 1h 34mn\nOverall bit rate                         : 2 077 Kbps\nWriting library                          : VirtualDub build 32842/release\n\nVideo\nID                                       : 0\nFormat                                   : MPEG-4 Visual\nFormat profile                           : Advanced Simple@L5\nFormat settings, BVOP                    : 2\nFormat settings, QPel                    : No\nFormat settings, GMC                     : No warppoints\nFormat settings, Matrix                  : Default (MPEG)\nMuxing mode                              : Packed bitstream\nCodec ID                                 : XVID\nCodec ID/Hint                            : XviD\nDuration                                 : 1h 34mn\nBit rate                                 : 1 937 Kbps\nWidth                                    : 640 pixels\nHeight                                   : 328 pixels\nDisplay aspect ratio                     : 1.951\nFrame rate                               : 29.970 fps\nColor space                              : YUV\nChroma subsampling                       : 4:2:0\nBit depth                                : 8 bits\nScan type                                : Progressive\nCompression mode                         : Lossy\nBits/(Pixel*Frame)                       : 0.308\nStream size                              : 1.28 GiB (93%)\nWriting library                          : XviD 1.2.0.dev47 (UTC 2006-11-01)\n\nAudio\nID                                       : 1\nFormat                                   : MPEG Audio\nFormat version                           : Version 1\nFormat profile                           : Layer 3\nMode                                     : Joint stereo\nMode extension                           : MS Stereo\nCodec ID                                 : 55\nCodec ID/Hint                            : MP3\nDuration                                 : 1h 34mn\nBit rate mode                            : Constant\nBit rate                                 : 128 Kbps\nChannel(s)                               : 2 channels\nSampling rate                            : 48.0 KHz\nCompression mode                         : Lossy\nDelay relative to video                  : 100ms\nStream size                              : 86.5 MiB (6%)\nAlignment                                : Split accross interleaves\nInterleave, duration                     : 33 ms (1.00 video frame)\nInterleave, preload duration             : 500 ms\n\n\n\n\n\n\n\nE N C O D E R S . N O T E S . . .       \n\nSOURCE......: a friend\nSAMPLE......: Yes\nADDED NOTE..: to the run and gun wannabe.. yeah u the haz been that never was - - the one still starved for attention. the only thing that i need to sync is my willy in ya mum - - all night long\n\n\naddition notes: video was meh. there are some focus issues here and there and some parts get dark. didn't want to wash it out with brightness so adjusted levels b4 crazy issues. resized, cropped and tweaked some rgb levels, denoised, deflickerd &amp; added some sharpness.  \n\nas for audio, it's cam while it's very legiable - the problem here is, the original encoder seemed to have hacked out the mids. remastered bringing back frequencies and a few other filters. still a little tinny at times but overall exelent QUALiTY\n\nv.6a.7 m.7 \n\nenjoy if ya fancy\n\n\n\nscreens\n &lt;a href=&quot;\nhttp://i.imgur.com/RXmyzza.jpg&quot; rel=&quot;nofollow&quot; target=&quot;_NEW&quot;&gt;\nhttp://i.imgur.com/RXmyzza.jpg&lt;/a&gt; &lt;a href=&quot;\nhttp://i.imgur.com/QXaMWaE.jpg&quot; rel=&quot;nofollow&quot; target=&quot;_NEW&quot;&gt;\nhttp://i.imgur.com/QXaMWaE.jpg&lt;/a&gt; &lt;a href=&quot;\nhttp://i.imgur.com/P4AvdTH.jpg&quot; rel=&quot;nofollow&quot; target=&quot;_NEW&quot;&gt;\nhttp://i.imgur.com/P4AvdTH.jpg&lt;/a&gt; &lt;a href=&quot;\nhttp://i.imgur.com/Gl1oXD6.jpg&quot; rel=&quot;nofollow&quot; target=&quot;_NEW&quot;&gt;\nhttp://i.imgur.com/Gl1oXD6.jpg&lt;/a&gt;","torrent":{"xt":"urn:btih:cc79391414d5a40b3a15d929aa84d7761dc63bab","amp;dn":"Home.Front.2013.CAM.NEW.SOURCE.XviD-VAiN","amp;tr":["udp%3A%2F%2Ftracker.openbittorrent.com%3A80","udp%3A%2F%2Fopen.demonii.com%3A1337","udp%3A%2F%2Ftracker.coppersurfer.tk%3A6969","udp%3A%2F%2Fexodus.desync.com%3A6969"],"infoHash":"cc79391414d5a40b3a15d929aa84d7761dc63bab","infoHashBuffer":{"type":"Buffer","data":[204,121,57,20,20,213,164,11,58,21,217,41,170,132,215,118,29,198,59,171]},"announce":[],"urlList":[]}}